<svg width="678" height="364" viewBox="0 0 678 364" fill="none" xmlns="http://www.w3.org/2000/svg">
<g clip-path="url(#clip0_11_92)" filter="url(#filter0_d_11_92)">
<path d="M25.2837 0C23.966 0.7832 22.5813 1.47147 21.152 2.0648C15.6133 4.39067 9.829 5.2688 4 5.5536V6.17067C9.896 5.9096 15.725 4.984 21.353 2.65813C23.1173 1.89867 24.8147 0.9968 26.4227 0H25.2837Z" fill="#C94293"/>
<path d="M45.138 0C39.2867 7.07253 31.4477 12.5312 22.492 15.5216C16.4843 17.5389 10.2533 18.512 4 18.9867V19.58C10.3203 19.1053 16.5737 18.1085 22.6707 16.0912C31.8943 13.0059 39.9567 7.3336 45.8973 0H45.138Z" fill="#C94293"/>
<path d="M58.2253 0C58.069 0.237333 57.9127 0.4984 57.734 0.735733C48.8007 13.9315 35.6687 23.1163 19.7227 27.2933C14.519 28.6699 9.18133 29.6192 4 30.3787V30.972C9.226 30.2363 14.6083 29.2632 19.8567 27.8867C35.9367 23.6621 49.1803 14.4061 58.1807 1.09173C58.4263 0.735733 58.6497 0.356 58.8953 0H58.2253Z" fill="#C94293"/>
<path d="M77.4543 211.867C82.8367 217.018 92.172 216.021 100.413 215.143C116.761 213.41 133.511 210.372 151.601 205.887C156.961 204.558 162.388 203.015 167.636 201.52C178.959 198.316 190.662 194.969 202.387 193.569C219.74 191.504 237.383 192.786 253.977 194.257C269.186 195.634 286.673 196.465 301.882 189.178C313.406 183.649 322.92 173.87 329.419 160.912C335.561 148.594 338.375 134.354 337.28 120.826C335.918 103.549 329.754 88.3592 319.95 78.0589C315.952 73.8581 311.24 70.3219 306.661 66.9043C299.582 61.6117 292.256 56.1293 287.723 48.1312C280.799 35.8848 283.479 19.58 293.82 11.0123C306.795 0.261067 324.215 7.30987 331.116 10.8699C335.896 13.3144 340.496 16.2099 344.941 19.0104C353.785 24.564 362.919 30.2837 373.639 32.7045C387.843 35.8848 402.449 34.6269 416.564 33.4165L417.948 33.2979C445.932 30.8771 474.72 30.6635 492.318 56.0819C499.085 65.86 503.083 77.5368 506.947 88.8339C508.443 93.2245 510.006 97.7576 511.704 102.125C512.642 104.545 513.647 107.014 514.607 109.387C519.453 121.349 524.456 133.737 524.59 147.075C524.746 164.163 515.344 177.953 505.718 190.602L503.619 193.355C493.725 206.338 484.368 218.608 476.663 233.204C475.501 235.411 474.385 237.642 473.201 240.015C467.372 251.621 461.364 263.63 451.203 270.346C439.187 278.297 424.135 275.876 410.824 273.717L410.02 273.598C393.449 270.916 377.19 268.97 360.596 274.357C351.819 277.205 343.534 281.596 335.538 285.844C329.017 289.309 322.295 292.869 315.349 295.575C313.384 296.334 311.396 297.094 309.431 297.853C295.673 303.122 282.675 308.106 270.012 315.867C258.466 322.939 248.662 331.412 238.277 340.407C236.177 342.235 234.078 344.038 231.934 345.866C227.043 350.043 222.331 353.413 217.708 356.047H222.219C225.882 353.722 229.589 350.945 233.341 347.741C235.485 345.913 237.584 344.086 239.684 342.282C249.979 333.358 259.717 324.957 271.107 317.955C283.591 310.313 296.5 305.353 310.168 300.108C312.133 299.349 314.121 298.613 316.086 297.83C323.143 295.1 329.933 291.493 336.499 288.004C344.405 283.803 352.601 279.46 361.199 276.659C377.346 271.438 393.337 273.361 409.64 275.971L410.444 276.114C424.112 278.321 439.634 280.813 452.342 272.387C462.995 265.315 469.159 253.045 475.122 241.154C476.305 238.805 477.422 236.574 478.561 234.39C486.154 219.961 495.445 207.785 505.294 194.874L507.393 192.121C516.84 179.709 526.913 164.947 526.756 147.052C526.645 133.215 521.53 120.613 516.595 108.438C515.634 106.064 514.652 103.62 513.714 101.199C512.039 96.8795 510.498 92.3701 509.001 88.0032C505.093 76.54 501.028 64.6971 494.06 54.6341C475.769 28.2189 446.312 28.4325 417.725 30.8771L416.34 30.9957C402.382 32.2061 387.955 33.4403 374.063 30.3312C363.678 28.0053 355.125 22.6179 346.035 16.9219C341.546 14.0976 336.901 11.1784 332.032 8.6864C324.774 4.96027 306.349 -2.46827 292.39 9.1136C281.157 18.4171 278.253 36.0984 285.757 49.3653C290.514 57.7907 298.041 63.4155 305.321 68.8741C309.81 72.2443 314.456 75.7093 318.319 79.7677C327.744 89.6883 333.662 104.332 334.98 121.04C337.191 148.737 322.853 176.481 300.899 187.019C286.182 194.091 269.007 193.237 254.089 191.908C237.383 190.413 219.606 189.131 202.052 191.219C190.171 192.643 178.379 195.99 166.966 199.218C161.74 200.713 156.313 202.232 150.998 203.561C132.975 208.023 116.337 211.037 100.078 212.769C92.306 213.6 83.5067 214.526 78.839 210.087C76.4493 207.809 75.2433 204.273 75.154 199.265C74.953 186.568 79.7547 173.23 89.3803 159.678C91.301 156.972 93.2663 154.243 95.187 151.632C102.825 141.095 110.709 130.201 116.85 118.121C123.662 104.688 130.295 88.7389 137.151 69.3251C144.075 49.6976 146.643 32.1112 144.99 15.5453C144.521 9.968 143.405 4.86533 141.864 0H139.496C141.104 4.9128 142.266 10.0867 142.846 15.7589C144.454 31.9451 141.931 49.1517 135.141 68.4232C128.33 87.7184 121.741 103.596 114.974 116.91C108.922 128.825 101.083 139.647 93.512 150.09C91.5913 152.724 89.626 155.453 87.7053 158.159C77.767 172.162 72.8313 185.998 73.0323 199.241C73.0993 204.985 74.551 209.091 77.4543 211.867Z" fill="#C94293"/>
<path d="M154.034 353.532C151.108 352.487 148.071 351.396 145.123 350.399C130.941 345.605 114.906 339.434 103.918 326.784C95.6321 317.243 93.4211 304.451 91.2994 292.086C90.7188 288.692 90.1158 285.203 89.4011 281.833C87.6591 273.574 85.4928 265.315 82.7904 256.534C81.9641 253.828 81.1825 251.004 80.4231 248.274C78.7928 242.389 77.1178 236.337 74.7951 230.735C71.2888 222.334 64.4548 220.008 58.8714 218.893C51.8588 217.516 44.4218 215.855 37.4314 212.01C26.5104 206.029 18.6044 195.681 12.5298 179.448C9.42542 171.141 6.63376 162.55 3.97609 154.124V161.553C6.00842 167.842 8.13009 174.179 10.4528 180.35C16.6614 196.915 25.1481 207.975 36.4264 214.17C43.6848 218.157 51.3004 219.866 58.4918 221.29C66.0628 222.785 70.3284 225.894 72.7628 231.732C75.0408 237.191 76.6935 243.172 78.3015 248.986C79.0608 251.739 79.8424 254.587 80.6911 257.317C83.3488 266.003 85.4928 274.215 87.2348 282.403C87.9495 285.726 88.5301 289.191 89.1108 292.561C91.2995 305.258 93.5551 318.406 102.287 328.469C113.655 341.546 130.003 347.859 144.453 352.749C147.378 353.745 150.393 354.813 153.319 355.858C153.498 355.929 153.676 355.976 153.855 356.047H161.024C158.679 355.193 156.356 354.362 154.034 353.532Z" fill="#C94293"/>
<path d="M350.814 7.33268C362.204 13.5745 372.947 19.4604 385.543 21.7863C398.809 24.2308 412.119 22.1185 425.006 20.0537C428.423 19.5079 431.974 18.9383 435.458 18.4636C452.699 16.1377 465.563 17.6092 477.132 23.234C488.477 28.7639 498.438 38.1385 505.182 49.6255C510.632 58.8815 513.49 69.5852 516.26 79.9567C517.689 85.2967 519.163 90.8028 520.972 96.0479C522.267 99.7977 523.764 103.643 525.215 107.369C530.062 119.829 535.087 132.692 534.417 146.125C533.389 166.892 521.329 182.532 509.649 197.674C502.748 206.621 495.601 215.901 490.688 226.201C481.509 245.52 478.561 262.537 481.866 276.753C482.648 280.1 483.586 283.351 484.479 286.508C488.097 299.158 491.492 311.119 483.765 324.22C480.75 329.323 477.355 334.141 474.094 338.792C470.253 344.251 466.345 349.852 462.972 355.975H463.62C466.925 350.018 470.789 344.536 474.541 339.172C477.824 334.497 481.196 329.679 484.234 324.552C492.117 311.238 488.678 299.134 485.015 286.342C484.122 283.185 483.184 279.934 482.425 276.611C479.142 262.537 482.09 245.663 491.202 226.486C496.07 216.233 503.195 207.001 510.096 198.054C521.821 182.864 533.948 167.129 534.975 146.173C535.645 132.597 530.62 119.663 525.729 107.155C524.277 103.429 522.781 99.5841 521.486 95.858C519.677 90.6367 518.203 85.1305 516.773 79.8143C513.982 69.4191 511.101 58.6679 505.629 49.3407C498.817 37.7588 488.767 28.2892 477.333 22.7119C465.675 17.0159 452.721 15.5207 435.346 17.8703C431.862 18.3449 428.311 18.9145 424.894 19.4604C412.052 21.5015 398.786 23.6375 385.61 21.1929C373.103 18.8671 362.383 13.0049 351.038 6.78681C349.385 5.88494 347.732 4.98308 346.08 4.08121C343.489 2.68094 340.854 1.30441 338.174 -0.0246582H336.834C339.893 1.44681 342.886 3.03694 345.834 4.60334C347.531 5.52894 349.184 6.43081 350.814 7.33268Z" fill="#C94293"/>
<path d="M298.041 75.472C291.117 69.5149 283.971 63.3443 278.767 55.4173C270.749 43.1947 270.37 26.2491 277.784 12.2464C280.375 7.3336 283.703 3.204 287.522 0H286.628C282.988 3.18027 279.817 7.21493 277.293 11.9616C269.767 26.1779 270.169 43.3608 278.298 55.7733C283.546 63.7715 290.738 69.9659 297.683 75.9467C301.971 79.6491 306.416 83.4939 310.346 87.6947C320.419 98.5171 325.712 113.564 324.841 128.991C323.947 144.821 316.778 159.512 305.143 169.29C287.633 184.028 266.104 182.865 245.312 181.75C234.1 181.157 222.532 180.516 211.678 182.391C208.439 182.937 205.156 183.387 201.985 183.815C198.389 184.313 194.66 184.811 190.997 185.476C184.52 186.663 177.999 188.134 171.679 189.582C169.445 190.08 167.234 190.602 165.001 191.077L163.728 191.362C149.636 194.495 133.69 198.031 119.039 196.512C110.351 195.586 103.651 192.287 100.19 187.232C97.5543 183.364 96.7727 178.522 97.8893 172.874C99.877 162.906 105.371 154.172 110.686 145.699C113.59 141.095 116.582 136.324 118.927 131.459C123.305 122.417 126.699 112.686 129.982 103.287C130.809 100.938 131.613 98.5883 132.461 96.2624C133.801 92.5125 135.231 88.6915 136.593 85.0128C139.385 77.5131 142.266 69.7523 144.678 61.9677C151.445 40.0856 153.008 20.1496 149.479 0.0237333H148.899C152.45 20.0784 150.886 39.9669 144.142 61.7779C141.73 69.5624 138.849 77.2995 136.057 84.7992C134.695 88.4779 133.265 92.2752 131.925 96.0488C131.099 98.3747 130.273 100.724 129.446 103.074C126.163 112.472 122.769 122.179 118.414 131.174C116.069 136.016 113.076 140.762 110.195 145.343C104.857 153.863 99.3187 162.645 97.331 172.731C96.1697 178.57 96.9737 183.554 99.7207 187.565C103.294 192.786 110.128 196.156 118.972 197.082C133.69 198.624 149.703 195.064 163.84 191.931L165.113 191.647C167.346 191.148 169.579 190.65 171.79 190.128C178.088 188.704 184.61 187.209 191.064 186.046C194.727 185.381 198.456 184.859 202.03 184.384C205.201 183.957 208.484 183.506 211.745 182.96C222.532 181.109 234.078 181.726 245.245 182.343C266.149 183.459 287.767 184.622 305.455 169.765C317.203 159.891 324.461 145.034 325.354 129.014C326.225 113.422 320.888 98.1848 310.704 87.2437C306.795 83.0192 302.351 79.1981 298.041 75.472Z" fill="#C94293"/>
<path d="M287.254 80.5272C283.278 76.54 279.147 72.4104 275.484 67.996C264.206 54.4443 260.208 39.3261 263.603 23.0688C265.389 14.5011 268.471 6.59787 272.469 0H271.799C267.868 6.59787 264.831 14.4536 263.044 22.9501C259.605 39.3973 263.647 54.6816 275.06 68.3995C278.745 72.8376 282.876 76.9672 286.874 80.9544C293.418 87.5048 300.185 94.2925 305.143 102.504C313.294 116.056 313.719 131.886 306.259 144.868C297.281 160.509 282.139 166.133 271.017 168.079C260.141 170.002 248.818 170.429 237.875 170.856C231.912 171.094 225.748 171.331 219.74 171.806C208.551 172.684 197.34 174.511 186.463 176.267C180.277 177.288 173.867 178.309 167.525 179.163H167.458C156.648 180.634 145.482 182.13 135.007 179.519C129.781 178.214 126.007 175.888 123.774 172.636C119.642 166.632 121.652 158.562 124.086 150.802C126.454 143.231 128.732 135.494 130.92 127.994C133.935 117.765 137.04 107.203 140.39 96.9269C142.042 91.8717 143.874 86.7453 145.638 81.7851C149.904 69.7997 154.326 57.4109 156.805 44.6899C159.619 30.3549 160.043 15.308 158.1 0H157.542C159.507 15.2843 159.083 30.26 156.313 44.5949C153.857 57.2685 149.435 69.6336 145.169 81.5952C143.405 86.5555 141.573 91.6819 139.921 96.7608C136.548 107.061 133.444 117.622 130.429 127.851C128.218 135.327 125.962 143.065 123.595 150.635C121.786 156.474 118.726 166.252 123.372 173.016C125.694 176.386 129.58 178.783 134.918 180.112C139.117 181.18 143.449 181.56 147.782 181.56C154.348 181.56 161.026 180.658 167.547 179.78H167.614C173.957 178.926 180.366 177.881 186.553 176.885C197.407 175.128 208.618 173.301 219.785 172.423C225.792 171.948 231.956 171.711 237.897 171.473C248.863 171.046 260.186 170.619 271.107 168.697C282.34 166.727 297.639 161.031 306.728 145.201C314.299 132.005 313.875 115.937 305.612 102.196C300.631 93.9128 293.82 87.1013 287.254 80.5272Z" fill="#C94293"/>
<path d="M413.772 0C403.074 8.49653 387.508 4.7704 376.699 1.2104C375.537 0.830667 374.376 0.4272 373.237 0H371.473C373.148 0.617067 374.845 1.2104 376.52 1.78C387.53 5.4112 403.409 9.20853 414.308 0.308533C414.442 0.2136 414.554 0.0949333 414.688 0H413.772Z" fill="#C94293"/>
<path d="M264.161 66.928C255.116 54.4917 251.945 39.516 255.027 23.6147C256.143 17.8712 258.265 9.13733 262.039 0H261.436C257.707 9.08987 255.585 17.7763 254.491 23.4723C251.386 39.5635 254.58 54.7053 263.714 67.284C266.997 71.7933 270.928 76.1603 275.082 80.812C287.79 95.0045 300.944 109.695 297.237 129.655C293.529 149.591 272.156 155.548 253.955 158.515C247.701 159.535 241.314 160.247 235.128 160.959C231.666 161.363 228.093 161.766 224.564 162.217C220.7 162.716 216.837 163.238 212.973 163.76C199.953 165.516 186.463 167.344 173.197 168.079C154.616 169.124 143.695 164.163 140.725 153.389C138.759 146.245 139.541 138.27 140.524 130.723C140.658 129.75 140.68 128.374 140.702 126.76C140.769 122.915 140.859 117.622 142.712 116.056L142.779 115.961C143.762 113.991 144.008 111.689 144.231 109.482C144.32 108.627 144.41 107.797 144.544 107.014C145.102 103.549 146.152 100.107 147.179 96.7608L147.536 95.6216C149.524 89.1187 151.891 82.6395 154.169 76.3739C155.174 73.6208 156.202 70.7965 157.184 67.996C163.214 50.9317 166.341 33.7013 166.52 16.7557C166.587 11.2021 166.274 5.5536 165.939 0.0237333H165.381C165.716 5.5536 166.028 11.2021 165.961 16.7557C165.783 33.6301 162.656 50.7893 156.671 67.8061C155.688 70.6067 154.638 73.4547 153.656 76.184C151.378 82.4496 149.01 88.9525 147.023 95.4555L146.665 96.5947C145.638 99.9648 144.566 103.43 144.008 106.942C143.874 107.749 143.784 108.627 143.695 109.458C143.472 111.594 143.226 113.801 142.333 115.676C140.323 117.456 140.233 122.63 140.166 126.807C140.144 128.374 140.122 129.75 139.988 130.699C139.005 138.318 138.201 146.363 140.211 153.602C143.003 163.736 152.517 168.839 168.552 168.839C170.048 168.839 171.612 168.791 173.22 168.697C186.53 167.961 199.997 166.133 213.04 164.353C216.904 163.831 220.767 163.309 224.609 162.811C228.115 162.36 231.711 161.956 235.172 161.553C241.359 160.841 247.768 160.129 254.022 159.108C270.973 156.355 293.954 150.303 297.773 129.774C301.547 109.506 288.281 94.7197 275.484 80.4085C271.352 75.7805 267.422 71.4136 264.161 66.928Z" fill="#C94293"/>
<path d="M487.628 346.482C485.105 349.591 482.559 352.748 480.102 355.999H480.817C483.162 352.866 485.618 349.852 488.03 346.862C492.631 341.19 497.388 335.304 501.341 328.919C509.828 315.178 510.654 301.484 503.976 284.491C498.572 270.702 492.966 256.438 496.785 239.991C500.827 222.523 511.503 208.781 521.843 195.491C530.397 184.478 539.218 173.11 544.333 159.629C550.117 144.416 549.469 126.996 542.434 107.843C541.965 106.585 541.496 105.351 541.05 104.094C538.705 97.7804 536.27 91.2538 534.595 84.5847C533.188 78.9836 532.518 73.1452 531.871 67.4967C531.647 65.5268 531.402 63.462 531.156 61.4447C530.039 52.9244 527.672 45.2823 523.518 36.6434C520.481 30.3777 516.081 25.0377 511.838 19.8639C510.051 17.7041 508.22 15.4732 506.522 13.2185C503.708 9.49241 500.85 5.00681 499.822 -0.0246582H499.242C500.269 5.14921 503.217 9.75348 506.098 13.5983C507.818 15.8767 509.649 18.1076 511.436 20.2673C515.679 25.4175 520.056 30.7338 523.049 36.9282C527.181 45.4959 529.526 53.0906 530.62 61.5396C530.888 63.557 531.111 65.598 531.335 67.5679C531.982 73.2402 532.652 79.1023 534.082 84.7508C535.757 91.4436 538.213 97.994 540.558 104.331C541.027 105.589 541.496 106.823 541.943 108.081C548.933 127.091 549.559 144.345 543.841 159.416C538.749 172.802 529.95 184.146 521.441 195.111C511.078 208.473 500.358 222.262 496.271 239.848C492.408 256.485 498.058 270.844 503.507 284.728C510.096 301.507 509.292 315.035 500.917 328.587C496.964 334.948 492.229 340.81 487.628 346.482Z" fill="#C94293"/>
<path d="M674 9.27973C664.776 8.66267 656.334 9.30347 647.87 11.1547C640.746 12.7211 633.621 14.7384 626.698 16.6845C617.474 19.2952 607.938 22.0008 598.312 23.6384C585.582 25.7981 569.1 27.1984 554.695 18.8205C546.075 13.8128 539.397 7.21493 535.332 0H534.685C538.794 7.42853 545.628 14.2163 554.45 19.3664C563.003 24.3504 572.272 25.9168 581.049 25.9168C587.19 25.9168 593.131 25.1573 598.402 24.2555C608.05 22.6179 617.608 19.9123 626.854 17.3016C633.755 15.3555 640.88 13.3381 647.982 11.7717C656.401 9.92053 664.799 9.30347 674 9.92053V9.27973Z" fill="#C94293"/>
<path d="M594.516 0C596.258 0.1424 598.022 0.237333 599.831 0.237333C601.662 0.237333 603.538 0.166133 605.414 0H594.516Z" fill="#C94293"/>
<path d="M264.63 80.4313C258.332 72.3145 251.788 63.9129 248.26 53.9924C243.056 39.4439 246.54 23.4476 251.051 8.32948C251.855 5.62388 252.704 2.84708 253.553 -0.000924895H251.185C250.404 2.58601 249.644 5.10174 248.907 7.59374C244.262 23.1391 240.711 39.61 246.16 54.8468C249.845 65.1471 256.478 73.6911 262.91 81.974C264.25 83.6828 265.613 85.4628 266.953 87.2191C277.36 101.032 282.028 112.756 280.822 122.036C280.062 127.874 276.936 132.929 271.531 137.012C257.885 147.336 239.304 149.923 222.911 152.201L221.482 152.391C219.048 152.723 216.591 153.103 214.179 153.459C205.38 154.788 196.29 156.164 187.379 156.164C183.359 156.164 179.674 155.903 176.123 155.334C167.346 153.957 161.07 150.682 157.475 145.603C153.812 140.429 152.874 133.641 152.204 126.545C152.718 110.952 155.554 96.0953 160.892 81.1196C161.428 79.6481 161.941 78.1767 162.477 76.7052C167.011 64.1028 171.701 51.0495 173.398 37.0943C174.649 26.7465 174.761 16.2089 174.895 6.00361C174.917 4.01001 174.939 2.01641 174.984 -0.0246582H172.728C172.706 1.99267 172.661 3.98628 172.639 5.95614C172.527 16.0903 172.416 26.5567 171.165 36.762C169.512 50.4324 165.068 62.7737 160.378 75.8271C159.842 77.2985 159.306 78.77 158.792 80.2415C153.365 95.502 150.462 110.62 149.971 126.521V126.593V126.664C150.685 134.14 151.668 141.331 155.71 147.003C159.663 152.604 166.43 156.188 175.81 157.66C179.473 158.229 183.247 158.514 187.401 158.514C196.469 158.514 205.648 157.137 214.514 155.785C216.904 155.429 219.383 155.049 221.795 154.717L223.202 154.527C239.862 152.201 258.734 149.567 272.826 138.91C278.767 134.425 282.206 128.824 283.055 122.297C284.373 112.187 279.683 100.201 268.717 85.6289C267.355 83.9201 265.97 82.1401 264.63 80.4313Z" fill="#C94293"/>
<path d="M252.012 80.6221C244.753 70.844 237.249 60.7099 234.971 48.3448C232.649 35.8373 236.289 23.4248 239.795 11.4157C240.89 7.66587 242.006 3.79733 242.922 0H242.341C241.426 3.72613 240.331 7.5472 239.259 11.2259C235.731 23.3061 232.09 35.8136 234.435 48.4635C236.758 60.9709 244.307 71.1525 251.587 81.0019C253.352 83.3752 255.161 85.8197 256.836 88.2405C267.757 103.857 269.655 116.554 262.486 125.953C255.451 135.185 242.81 138.46 233.587 140.857C223.224 143.563 210.963 146.316 198.724 146.316C194.235 146.316 189.903 145.936 185.883 145.201C171.165 142.471 162.991 132.029 161.562 114.157C161.539 99.6088 166.832 85.9859 171.969 72.8139C172.527 71.3899 173.063 69.9896 173.622 68.5893C179.585 53.0677 182.488 38.8989 182.689 24.0419L182.711 21.5973C182.801 14.6672 182.912 7.2624 183.538 0.0237333H182.979C182.354 7.28613 182.265 14.6672 182.175 21.5973L182.153 24.0419C181.952 38.8515 179.071 52.9253 173.13 68.3757C172.594 69.776 172.036 71.2 171.478 72.6003C166.319 85.8197 161.003 99.4901 161.026 114.205C162.455 132.385 170.808 143.017 185.816 145.818C189.88 146.577 194.235 146.957 198.769 146.957C211.075 146.957 223.358 144.18 233.765 141.474C243.078 139.054 255.831 135.731 262.977 126.356C270.325 116.721 268.427 103.762 257.349 87.9083C255.585 85.4637 253.776 82.9955 252.012 80.6221Z" fill="#C94293"/>
<path d="M4 44.1677C5.206 43.8117 6.412 43.4557 7.59567 43.0997C20.281 39.3499 33.3683 35.4813 44.7807 27.9816C55.5677 20.8853 63.7863 11.1784 71.6923 0H71C63.1833 10.9648 55.0763 20.5056 44.4903 27.4595C33.145 34.9117 20.08 38.7803 7.46167 42.5301C6.32267 42.8624 5.16133 43.2184 4 43.5507V44.1677Z" fill="#C94293"/>
<path d="M136.213 14.3824C135.119 9.44587 133.355 4.60427 131.099 0H130.474C132.774 4.65173 134.561 9.5408 135.677 14.5248C139.027 29.4056 137.352 45.2832 130.273 66.0024C123.997 84.372 116.85 100.677 109.034 114.49C102.602 125.834 94.6733 135.019 86.2537 144.75C84.0873 147.265 81.8317 149.876 79.6207 152.487C77.3427 155.216 75.0647 158.017 72.8537 160.722C69.7717 164.519 66.6003 168.459 63.3397 172.185C62.7143 172.897 62.0667 173.657 61.419 174.44C57.265 179.353 52.5527 184.906 46.9917 186.995C45.473 187.565 43.9097 187.873 42.3463 187.873C31.2467 187.873 22.1793 173.087 18.807 166.75C12.6877 155.311 8.19867 142.851 4 130.581V132.337C8.04233 144.133 12.442 156.047 18.3157 167.059C22.5813 175.057 31.3807 188.49 42.3463 188.49C43.9543 188.49 45.5847 188.182 47.1703 187.588C52.8877 185.429 57.6447 179.827 61.8433 174.867C62.491 174.084 63.1387 173.348 63.764 172.613C67.0247 168.863 70.196 164.923 73.3003 161.126C75.489 158.42 77.767 155.596 80.045 152.89C82.2337 150.279 84.4893 147.669 86.6557 145.153C95.0753 135.399 103.048 126.19 109.48 114.798C117.319 100.962 124.488 84.6093 130.786 66.1923C137.911 45.3781 139.586 29.4056 136.213 14.3824Z" fill="#C94293"/>
<path d="M232.649 75.3296C229.678 71.8645 226.619 68.2808 224.006 64.6021C219.003 57.5533 216.502 51.4539 216.1 45.4019C215.675 38.7565 218.177 32.5147 220.633 26.4627C221.236 24.9912 221.839 23.4723 222.398 21.9771C224.296 16.8981 227.467 8.30667 228.405 0H227.847C226.909 8.21173 223.76 16.732 221.884 21.7635C221.326 23.2587 220.723 24.7776 220.12 26.2491C217.663 32.3485 215.095 38.6616 215.541 45.4731C215.943 51.6437 218.489 57.8381 223.559 64.9819C226.172 68.6843 229.254 72.268 232.247 75.7568C238.344 82.8768 244.664 90.2341 247.746 99.2528C252.369 112.733 243.458 122.44 233.587 127.068C225.212 130.961 215.251 133.215 206.228 133.215C196.67 133.215 179.987 130.51 175.364 112.472C174.269 102.362 176.503 91.492 182.019 80.1949C183.716 76.7061 185.749 73.2411 187.692 69.8947C191.31 63.724 195.039 57.316 197.049 50.3859C199.528 41.8419 198.523 32.7757 197.541 23.9944C196.804 17.3016 196.022 10.3715 196.804 3.72613C196.938 2.53947 197.161 1.30533 197.451 0.0474667H196.871C196.58 1.2816 196.379 2.492 196.245 3.65493C195.441 10.3715 196.223 17.3253 196.982 24.0656C197.943 32.7757 198.948 41.7944 196.513 50.2197C194.526 57.0787 190.796 63.4392 187.223 69.6099C185.257 72.98 183.225 76.4688 181.528 79.9576C175.967 91.3733 173.711 102.338 174.828 112.615C179.54 131.079 196.536 133.856 206.228 133.856C215.318 133.856 225.368 131.601 233.81 127.662C243.927 122.939 253.039 112.971 248.282 99.1104C245.133 89.9019 238.768 82.4971 232.649 75.3296Z" fill="#C94293"/>
<path d="M3.99858 63.7457C4.37824 63.2473 4.78024 62.7489 5.22691 62.2742C10.5646 56.6257 17.5102 53.2081 24.2326 49.8854C25.1706 49.4345 26.0862 48.9598 27.0243 48.5089C38.6599 42.6942 53.7126 34.3638 67.1796 21.5478C69.5023 19.3406 71.7579 16.8724 74.1699 14.2617C79.0386 8.96918 84.0413 3.58171 89.6916 -0.0257568H88.6196C83.2149 3.58171 78.4579 8.75558 73.7679 13.8345C71.3783 16.4452 69.1003 18.8897 66.7999 21.0732C53.3999 33.818 38.3696 42.1246 26.7786 47.9393C25.8629 48.414 24.9249 48.8649 23.9869 49.3158C17.2199 52.6385 10.2296 56.1036 4.82491 61.8233C4.53457 62.1318 4.24424 62.4641 3.97624 62.7964V63.7457H3.99858Z" fill="#C94293"/>
<path d="M127.57 17.3965C125.516 10.8461 121.496 4.272 116.046 0H115.064C120.759 4.17707 124.913 10.8936 127.034 17.5864C130.831 29.548 130.273 43.4795 125.359 60.1403C120.781 75.6619 113.612 92.1091 104.589 107.749C96.6387 121.515 86.5663 132.218 73.9033 144.061C73.345 144.583 72.7643 145.129 72.1613 145.699C64.0767 153.317 52.9993 163.736 42.2123 163.736C40.515 163.736 38.84 163.475 37.2767 162.929C26.5343 159.274 20.348 147.74 15.256 135.826C10.3873 124.481 6.99267 112.496 4 100.534V102.837C6.85867 114.11 10.164 125.383 14.7423 136.087C19.879 148.12 26.1547 159.773 37.098 163.499C38.7283 164.045 40.448 164.33 42.2123 164.33C53.2227 164.33 64.367 153.816 72.5187 146.126C73.1217 145.557 73.7023 145.011 74.2607 144.489C86.9683 132.622 97.0853 121.871 105.058 108.058C114.103 92.3939 121.317 75.8755 125.895 60.3301C130.853 43.5269 131.412 29.4768 127.57 17.3965Z" fill="#C94293"/>
<path d="M45.2943 144.583C40.113 144.583 35.4677 142.614 31.537 138.721C20.75 128.041 17.0873 111.903 14.7423 96.0726C14.653 93.9128 14.653 92.0616 14.6976 90.3528C14.8763 84.1584 16.3056 75.3059 21.9783 68.4944C25.9983 63.6528 31.3137 60.2115 36.4727 56.8888C37.2543 56.3667 38.0583 55.8683 38.84 55.3462C51.7933 46.8259 65.573 37.4512 78.504 26.6526C87.3033 19.2952 95.0977 15.5691 101.686 15.5691C106.867 15.5691 111.334 17.895 114.93 22.4755C122.97 32.7046 119.977 48.6059 117.051 59.6656C108.721 90.9462 92.306 117.1 70.8437 133.31C64.3893 138.128 54.7413 144.583 45.2943 144.583ZM101.664 16.1387C95.2093 16.1387 87.5043 19.8174 78.8167 27.0798C65.8633 37.9022 52.0837 47.2768 39.108 55.8208C38.3263 56.343 37.5447 56.8414 36.7407 57.3635C31.6263 60.6624 26.3333 64.08 22.3803 68.8504C16.8193 75.5432 15.4346 84.2296 15.256 90.3528C15.2113 92.0379 15.2113 93.8891 15.3006 96.0014C17.6233 111.689 21.2413 127.709 31.9167 138.27C35.758 142.068 40.247 143.99 45.2943 143.99C54.585 143.99 64.1213 137.582 70.4863 132.788C91.837 116.673 108.163 90.6139 116.471 59.4758C119.374 48.5584 122.344 32.8707 114.461 22.8552C110.999 18.3934 106.689 16.1387 101.664 16.1387Z" fill="#C94293"/>
<path d="M194.325 352.511C193.275 352.511 192.203 352.487 191.153 352.393C176.882 351.372 161.472 346.032 145.303 336.515C114.595 318.454 103.45 282.973 99.4973 256.415C98.202 240.347 108.319 231.732 117.029 227.318C127.325 222.097 138.625 218.75 149.569 215.499C154.102 214.146 158.792 212.769 163.304 211.274C177.552 206.551 194.503 201.52 212.258 200.143C214.871 199.93 217.596 199.835 220.365 199.835C231.42 199.835 242.23 201.425 252.682 202.967C261.168 204.225 271.754 205.792 282.095 205.792C299.649 205.792 312.758 201.093 322.138 191.457C332.255 181.085 340.228 165.872 344.07 149.734C348.536 130.913 345.276 111.096 341.926 95.9539C338.017 78.1776 331.362 66.3822 321.602 59.8555C320.218 58.9299 318.699 58.0043 317.113 57.0312C309.386 52.2609 300.631 46.8734 298.621 37.6411C296.969 30.0465 300.564 23.3062 307.599 20.8617C309.297 20.2683 311.106 19.9835 312.937 19.9835C317.27 19.9835 321.96 21.5974 327.32 24.8963C330.044 26.5814 332.68 28.5275 335.226 30.4262C339.134 33.3217 343.154 36.3121 347.621 38.3769C353.517 41.0825 360.328 42.6963 368.502 43.3134C371.294 43.527 374.153 43.6219 377.235 43.6219C385.855 43.6219 394.789 42.7913 403.409 42.0081C412.097 41.2011 421.075 40.3705 429.807 40.3705C443.274 40.3705 454.084 42.3403 463.821 46.5886C475.367 51.6201 484.904 61.4456 492.184 75.828C500.827 92.916 507.84 109.719 513.044 125.763C518.873 143.682 517.801 159.986 509.895 174.155C503.954 184.811 496.182 194.257 488.678 203.371C486.02 206.599 483.251 209.945 480.638 213.291C478.114 216.495 475.658 219.913 473.29 223.188C467.104 231.756 460.717 240.609 452.431 247.159C439.723 257.174 423.911 258.337 413.124 258.337C411.516 258.337 409.864 258.314 408.099 258.266C403.945 258.124 399.657 257.815 395.526 257.507C389.875 257.103 384.024 256.676 378.284 256.676C370.847 256.676 364.773 257.388 359.1 258.883C348.09 261.802 338.799 268.804 329.799 275.568C326.27 278.226 322.63 280.979 318.922 283.423C310.681 288.906 301.614 293.32 292.859 297.569C286.718 300.559 280.353 303.644 274.345 307.086C263.067 313.517 252.682 321.634 242.654 329.49C239.706 331.792 236.669 334.165 233.654 336.467C219.249 347.409 206.764 352.511 194.325 352.511ZM220.365 200.428C217.596 200.428 214.894 200.523 212.281 200.737C194.593 202.113 177.664 207.121 163.438 211.844C158.926 213.339 154.236 214.739 149.703 216.092C138.782 219.32 127.481 222.69 117.252 227.864C108.699 232.183 98.7827 240.656 100.056 256.344C103.986 282.759 115.064 318.05 145.571 335.993C161.651 345.462 177.016 350.779 191.198 351.799C192.248 351.87 193.297 351.918 194.325 351.918C206.653 351.918 219.048 346.863 233.319 335.969C236.334 333.667 239.371 331.294 242.319 328.991C252.391 321.136 262.776 312.995 274.077 306.54C280.107 303.098 286.472 299.989 292.636 296.999C301.368 292.751 310.413 288.36 318.632 282.878C322.317 280.433 325.957 277.68 329.486 275.046C338.531 268.258 347.866 261.209 358.966 258.266C364.661 256.747 370.803 256.059 378.284 256.059C384.046 256.059 389.898 256.486 395.548 256.89C399.68 257.174 403.945 257.507 408.099 257.625C409.864 257.673 411.516 257.72 413.124 257.72C423.844 257.72 439.522 256.581 452.096 246.661C460.337 240.181 466.702 231.353 472.844 222.809C475.211 219.51 477.69 216.116 480.214 212.888C482.849 209.542 485.596 206.195 488.276 202.944C495.78 193.83 503.53 184.408 509.448 173.799C517.265 159.773 518.292 143.658 512.53 125.905C507.326 109.885 500.336 93.1296 491.715 76.0654C484.502 61.8016 475.055 52.071 463.642 47.087C453.972 42.8862 443.23 40.9163 429.852 40.9163C421.142 40.9163 412.164 41.747 403.499 42.5302C394.856 43.3134 385.922 44.1441 377.279 44.1441C374.175 44.1441 371.294 44.0491 368.502 43.8355C360.284 43.2185 353.383 41.5809 347.442 38.8515C342.931 36.763 338.866 33.7489 334.958 30.8297C332.434 28.9547 329.799 27.0086 327.096 25.3235C321.826 22.0721 317.203 20.4819 312.982 20.4819C311.195 20.4819 309.453 20.7667 307.823 21.3363C301.1 23.6622 297.639 30.1177 299.224 37.4038C301.167 46.375 309.81 51.715 317.448 56.4142C319.034 57.3872 320.553 58.3366 321.937 59.2622C331.831 65.86 338.553 77.7979 342.506 95.7166C345.856 110.93 349.139 130.842 344.65 149.781C340.787 166.038 332.747 181.346 322.563 191.813C313.071 201.567 299.827 206.314 282.117 206.314C271.754 206.314 261.146 204.747 252.637 203.49C242.185 202.018 231.398 200.428 220.365 200.428Z" fill="#C94293"/>
<path d="M674 97.4016C671.99 97.0694 670.025 96.6896 668.059 96.2862C665.156 95.6928 662.141 95.0995 659.081 94.7198C642.532 92.6787 629.021 93.5806 616.581 97.544L614.794 98.1136C603.963 101.602 591.657 105.566 582.679 97.1643C575.086 90.068 574.081 76.896 577.029 67.5451C582.21 51.0504 600.278 44.595 614.794 39.4211C616.559 38.7803 618.301 38.1632 619.953 37.5462C622.678 36.5256 625.425 35.4576 628.083 34.4371C637.485 30.7584 647.222 26.9848 657.272 25.2523C662.655 24.3267 668.238 23.947 673.978 24.0894V21.716C668.126 21.5736 662.409 21.9534 656.915 22.9027C646.642 24.659 636.815 28.5038 627.301 32.2062C624.666 33.2267 621.919 34.2947 619.216 35.3152C617.564 35.9323 615.844 36.5494 614.08 37.1664C599.094 42.5064 580.446 49.1755 574.885 66.8094C571.713 76.9198 572.852 91.231 581.183 99.0155C585.605 103.145 590.741 104.569 596.057 104.569C602.623 104.569 609.434 102.386 615.442 100.439L617.229 99.8699C629.356 96.0014 642.577 95.147 658.836 97.1168C661.806 97.4728 664.776 98.0662 667.657 98.6595C669.734 99.063 671.856 99.4902 674 99.8462V97.4016Z" fill="#C94293"/>
<path d="M49.962 129.608C46.88 129.608 43.932 128.967 41.1627 127.709C31.1797 123.129 27.7627 109.79 26.6237 102.243L26.6013 102.077C26.579 101.555 26.579 101.033 26.5567 100.487C26.378 94.079 26.1546 86.8403 29.6387 80.9782C33.2343 74.9025 37.0533 70.2507 41.6763 66.3347C47.9297 61.0422 54.8083 56.5566 61.4413 52.1897C64.6797 50.0774 68.0297 47.8702 71.268 45.6155C71.8263 45.2121 72.4293 44.8086 73.0547 44.3577C78.906 40.2043 87.7277 33.9387 95.589 33.9387C98.0903 33.9387 100.368 34.5795 102.356 35.8137C107.448 39.0177 109.257 46.2563 107.716 57.3398C104.567 79.9102 92.44 103.24 76.8513 116.768C67.047 125.312 58.002 129.608 49.962 129.608ZM28.857 101.935C29.929 109.007 33.078 121.396 42.056 125.502C44.535 126.641 47.1927 127.211 49.962 127.211C57.466 127.211 66.042 123.081 75.422 114.941C90.6087 101.769 102.423 79.0321 105.483 57.0313C106.443 50.1486 106.488 41.2486 101.217 37.9259C99.5866 36.9054 97.6883 36.3595 95.589 36.3595C88.42 36.3595 79.9333 42.3878 74.3053 46.375C73.68 46.8259 73.077 47.2531 72.4963 47.6566C69.2357 49.935 65.8857 52.1422 62.625 54.2545C56.0367 58.5739 49.225 63.0358 43.0833 68.2334C38.6837 71.9595 35.021 76.4214 31.5593 82.2835C28.455 87.5286 28.656 94.079 28.8347 100.44C28.8347 100.938 28.857 101.436 28.857 101.935Z" fill="#C94293"/>
<path d="M674 78.4862C669.422 78.1539 664.486 77.4419 658.88 76.3264L658.411 76.2315C651.041 74.7601 640.947 72.7664 636.011 66.3347C634.448 64.2936 633.912 62.1102 634.403 59.8792C636.078 52.427 648.652 45.8054 653.989 43.3134C659.885 40.5603 667.367 40.2992 674 40.0856V39.4923C667.3 39.6822 659.774 39.9432 653.766 42.7675C648.361 45.307 635.587 52.0235 633.845 59.7368C633.286 62.1576 633.867 64.5072 635.564 66.7144C640.634 73.336 650.84 75.3534 658.3 76.8249L658.769 76.9198C664.419 78.0352 669.377 78.7473 674 79.0795V78.4862Z" fill="#C94293"/>
<path d="M196.603 341.428C187.066 341.428 177.195 338.817 168.038 333.904C155.934 327.401 144.923 317.291 136.236 304.665C127.749 292.323 121.786 278.155 119.039 263.677L119.017 263.582C117.788 252.001 123.617 242.27 136.325 234.651C147.782 227.793 161.048 221.693 176.905 216.045C191.622 210.799 205.223 208.236 218.445 208.236C220.231 208.236 222.063 208.284 223.827 208.379C235.597 209.019 247.456 211.203 258.935 213.315C263.402 214.146 268.025 215 272.558 215.736C275.328 216.187 278.142 216.709 280.889 217.207C290.202 218.893 299.805 220.625 309.207 220.625C311.284 220.625 313.294 220.53 315.237 220.364C321.022 219.866 327.476 218.56 331.697 212.698C334.935 208.189 337.079 202.635 339.156 197.248C339.558 196.227 339.938 195.23 340.34 194.234C341.211 192.05 342.104 189.843 342.998 187.612C348.09 175.057 353.338 162.099 355.192 148.737C357.045 135.328 355.281 121.064 353.584 107.227C353.204 104.166 352.824 101.009 352.489 97.9712C350.747 82.2835 350.278 64.9344 366.604 57.9331C381.411 51.5726 397.647 50.9318 413.37 50.291L415.112 50.2198C418.417 50.0774 421.321 50.0299 423.978 50.0299C439.88 50.0299 451.426 52.4032 461.431 57.767C474.697 64.8632 482.938 78.5099 489.236 90.9462C490.398 93.2246 491.626 95.5742 492.787 97.8288C499.108 109.957 505.674 122.512 508.331 136.158C511.212 150.944 507.46 166.347 497.5 180.706C493.078 187.09 487.896 192.952 482.916 198.648C482.246 199.407 481.598 200.167 480.928 200.903C479.186 202.896 477.489 205.009 475.836 207.073C472.799 210.894 469.628 214.834 466.01 218.181C464.067 219.961 462.168 221.907 460.315 223.758C456.518 227.603 452.587 231.59 447.964 234.651C441.488 238.923 433.961 241.938 425.631 243.528C420.517 244.525 415.157 244.999 409.305 244.999C397.402 244.999 385.476 243.006 373.929 241.059C372.009 240.727 370.088 240.347 368.033 239.944C362.673 238.9 357.157 237.784 351.864 237.784C344.137 237.784 338.62 240.134 334.511 245.213C331.965 248.346 329.709 251.811 327.521 255.181C325.042 258.978 322.496 262.894 319.503 266.383C314.098 272.696 308.024 278.06 301.48 282.332C296.12 285.821 290.604 289.262 285.288 292.585C275.618 298.613 265.613 304.855 256.166 311.619C253.173 313.755 250.136 316.057 247.188 318.288C236.803 326.12 226.06 334.237 213.889 338.509C208.372 340.431 202.543 341.428 196.603 341.428ZM121.25 263.25C126.766 292.229 145.526 319.118 169.043 331.768C177.887 336.515 187.424 339.031 196.603 339.031C202.298 339.031 207.903 338.081 213.241 336.206C225.1 332.053 235.686 324.055 245.937 316.318C248.885 314.087 251.945 311.785 254.96 309.625C264.451 302.837 274.479 296.572 284.194 290.52C289.509 287.197 295.026 283.779 300.341 280.291C306.706 276.137 312.624 270.916 317.873 264.769C320.776 261.399 323.277 257.53 325.712 253.804C327.945 250.387 330.245 246.874 332.858 243.646C337.37 238.093 343.601 235.387 351.909 235.387C357.403 235.387 363.031 236.503 368.48 237.594C370.512 237.998 372.455 238.378 374.331 238.686C385.788 240.609 397.647 242.602 409.372 242.602C415.112 242.602 420.316 242.127 425.296 241.178C433.358 239.612 440.617 236.74 446.848 232.61C451.27 229.691 455.111 225.775 458.818 222.025C460.672 220.127 462.593 218.181 464.58 216.353C468.064 213.149 471.169 209.257 474.161 205.507C475.814 203.418 477.534 201.282 479.32 199.241C479.99 198.482 480.66 197.722 481.308 196.963C486.266 191.338 491.38 185.523 495.735 179.258C502.413 169.646 509.627 154.433 506.165 136.633C503.574 123.366 497.12 110.977 490.867 98.9918C489.683 96.7134 488.455 94.3638 487.293 92.0854C481.152 80.0051 473.156 66.7144 460.449 59.9267C450.778 54.7528 439.545 52.4507 424.023 52.4507C421.388 52.4507 418.507 52.5219 415.224 52.6406L413.482 52.7118C397.96 53.3288 381.902 53.9696 367.475 60.1878C352.623 66.572 353.048 82.2123 354.745 97.7102C355.08 100.748 355.46 103.881 355.839 106.942C357.559 120.921 359.346 135.375 357.447 149.117C355.549 162.787 350.234 175.911 345.097 188.585C344.204 190.792 343.31 193 342.439 195.183C342.06 196.18 341.658 197.177 341.278 198.173C339.134 203.703 336.945 209.423 333.506 214.17C328.771 220.768 321.714 222.215 315.461 222.761C313.473 222.927 311.374 223.022 309.252 223.022C299.649 223.022 289.956 221.266 280.554 219.581C277.829 219.082 274.993 218.584 272.246 218.133C267.69 217.374 263.067 216.519 258.578 215.712C247.165 213.6 235.373 211.44 223.738 210.799C221.996 210.705 220.231 210.657 218.467 210.657C205.469 210.657 192.114 213.173 177.619 218.323C161.897 223.924 148.765 229.952 137.419 236.74C125.605 243.813 120.156 252.736 121.25 263.25Z" fill="#C94293"/>
<path d="M411.114 227.247C400.417 227.247 390.21 225.087 382.371 221.195C372.366 216.211 366.18 208.616 363.969 198.624C362.852 188.134 364.728 177.787 366.515 167.795C367.497 162.36 368.502 156.711 369.038 151.134C370.088 139.979 368.927 129.442 367.698 118.311C367.408 115.676 367.118 112.947 366.85 110.241C365.845 99.8462 365.621 86.6742 372.947 76.9436C378.91 69.0166 388.58 64.531 402.538 63.1782C407.675 62.6798 412.32 62.4425 416.698 62.4425C427.15 62.4425 435.971 63.819 443.699 66.6196C457.121 71.5086 468.801 81.4292 477.511 95.3369C485.596 108.248 494.239 123.485 496.919 138.65C499.621 153.887 495.043 168.175 482.469 183.601C467.729 201.686 444.659 225.894 414.487 227.176C413.37 227.223 412.253 227.247 411.114 227.247ZM416.698 63.0358C412.32 63.0358 407.72 63.2732 402.583 63.7716C388.803 65.1006 379.245 69.515 373.371 77.2996C366.18 86.8641 366.403 99.8937 367.386 110.17C367.654 112.876 367.944 115.605 368.234 118.24C369.463 129.418 370.624 139.979 369.574 151.205C369.061 156.806 368.033 162.455 367.051 167.913C365.264 177.881 363.41 188.182 364.505 198.529C370.267 224.612 401.623 226.653 411.114 226.653C412.231 226.653 413.348 226.63 414.442 226.582C444.413 225.301 467.372 201.211 482.045 183.198C494.485 167.913 499.041 153.792 496.361 138.769C493.681 123.698 485.082 108.533 477.042 95.6692C468.422 81.9038 456.808 72.0545 443.52 67.1892C435.86 64.3886 427.083 63.0358 416.698 63.0358Z" fill="#C94293"/>
<path d="M55.7463 109.529C51.503 109.529 45.9867 107.773 43.8427 99.4427C41.7433 82.8056 57.4437 72.3392 64.3 68.6131C67.1587 67.0467 74.7743 62.9171 80.4023 62.9171C83.797 62.9171 85.9633 64.3886 86.8567 67.3078C89.3357 75.4958 83.8417 86.7691 82.0997 90.0206C78.7273 96.3336 74.0597 101.555 68.655 105.139C64.4117 107.939 59.7217 109.529 55.7463 109.529ZM80.4023 63.5104C74.9083 63.5104 67.382 67.5926 64.5457 69.1352C57.801 72.8139 42.3463 83.0904 44.401 99.3003C46.4557 107.227 51.704 108.912 55.7463 108.912C59.61 108.912 64.2107 107.346 68.3423 104.617C73.68 101.08 78.2583 95.9302 81.6083 89.712C83.328 86.508 88.7327 75.4483 86.3207 67.4739C85.5167 64.8632 83.529 63.5104 80.4023 63.5104Z" fill="#C94293"/>
<path d="M416.474 210.728C416.452 210.728 416.474 210.728 416.474 210.728C408.077 210.728 400.372 208.07 393.605 202.825C384.917 196.109 381.255 184.361 382.416 166.964C383.555 149.829 381.902 133.429 380.138 116.056C379.959 114.323 379.781 112.567 379.624 110.835C378.865 96.9744 382.617 87.1013 390.769 81.4765C396.91 77.252 404.772 75.0923 414.129 75.0923C418.328 75.0923 422.683 75.5432 427.083 76.3976C441.287 79.2219 454.329 87.1726 464.781 99.4189C476.261 112.852 483.899 128.207 485.797 141.522C487.673 154.907 482.693 167.557 470.052 181.37C463.732 188.277 441.287 210.728 416.474 210.728ZM414.107 75.7094C404.861 75.7094 397.111 77.8216 391.059 81.9987C383.086 87.4811 379.423 97.1643 380.16 110.787C380.339 112.52 380.518 114.252 380.696 116.009C382.371 132.622 384.113 149.829 382.974 167.011C381.813 184.194 385.409 195.753 393.918 202.327C400.595 207.501 408.189 210.111 416.474 210.111C441.086 210.111 463.374 187.802 469.628 180.967C482.112 167.296 487.07 154.813 485.216 141.641C483.34 128.421 475.747 113.184 464.357 99.8462C453.972 87.6947 441.063 79.7915 426.971 76.991C422.594 76.1366 418.261 75.7094 414.107 75.7094Z" fill="#C94293"/>
<path d="M210.851 116.982C203.37 116.982 194.838 113.327 192.627 105.163C191.779 99.87 193.342 94.1265 196.804 89.7596C200.087 85.6062 204.576 83.2329 209.154 83.2329C210.829 83.2329 212.504 83.5414 214.134 84.1822C218.735 85.9622 224.854 90.8513 227.356 97.3542C228.74 100.938 228.74 104.522 227.356 107.678C224.854 113.398 218.512 116.982 210.851 116.982ZM209.154 83.8262C204.732 83.8262 200.399 86.1284 197.228 90.1393C193.878 94.3638 192.382 99.9412 193.186 105.02C195.307 112.852 203.593 116.365 210.851 116.365C218.288 116.365 224.43 112.923 226.864 107.393C228.204 104.332 228.204 101.033 226.842 97.5441C224.385 91.2073 218.445 86.4606 213.933 84.7044C212.392 84.1348 210.762 83.8262 209.154 83.8262Z" fill="#C94293"/>
<path d="M426.815 188.158C426.792 188.158 426.792 188.158 426.815 188.158C424.581 188.158 422.415 187.897 420.36 187.399C407.563 184.313 403.767 171.212 402.65 163.689C401.6 156.593 400.975 149.307 400.372 142.258C399.836 135.945 399.278 129.418 398.429 123.057L398.407 122.939C398.072 114.775 397.536 101.128 408.032 96.6185C411.226 95.242 414.688 94.5537 418.328 94.5537C427.842 94.5537 436.641 99.2054 442.336 103.121C455.915 112.425 476.685 134.188 468.489 156.759C462.325 173.776 443.23 188.158 426.815 188.158ZM400.662 122.796C401.533 129.204 402.092 135.731 402.628 142.068C403.208 149.069 403.834 156.308 404.883 163.333C405.911 170.263 409.372 182.32 420.874 185.073C422.772 185.524 424.782 185.761 426.837 185.761C442.426 185.761 460.56 172.091 466.434 155.904C474.094 134.782 454.151 114.086 441.153 105.163C435.703 101.436 427.328 96.9745 418.35 96.9745C415 96.9745 411.829 97.6153 408.903 98.8732C400.573 102.433 400.26 113.066 400.662 122.796Z" fill="#C94293"/>
<path d="M235.083 356C236.825 354.22 238.522 352.44 240.22 350.66C244.441 346.222 248.818 341.641 253.441 337.535C266.015 326.405 279.616 318.098 293.842 312.805C302.105 309.744 310.771 307.75 319.168 305.828C326.895 304.048 334.868 302.22 342.529 299.562C344.047 299.04 345.633 298.447 347.263 297.853C360.06 293.202 375.962 287.411 388.044 294.436C391.282 296.334 393.069 298.708 393.337 301.485C394.052 309.174 383.287 318.834 376.855 324.601C375.403 325.906 374.153 327.045 373.215 327.947C364.639 336.444 357.291 345.937 350.792 355.976H351.484C357.916 346.079 365.175 336.752 373.617 328.398C374.532 327.496 375.783 326.381 377.235 325.075C384.18 318.834 394.655 309.435 393.918 301.413C393.627 298.423 391.751 295.884 388.334 293.89C376.051 286.746 359.993 292.585 347.107 297.26C345.477 297.853 343.891 298.423 342.372 298.969C334.757 301.627 326.784 303.454 319.079 305.234C310.659 307.157 301.971 309.174 293.686 312.236C279.392 317.528 265.747 325.882 253.128 337.061C248.483 341.167 244.106 345.771 239.885 350.209C238.053 352.131 236.2 354.078 234.324 355.976H235.083V356Z" fill="#C94293"/>
<path d="M78.9283 345.249C71.67 341.546 67.6053 337.346 66.176 332.006C64.4563 325.645 66.0867 318.929 67.6723 312.426C67.851 311.714 68.0073 311.002 68.186 310.29C72.8983 290.33 71.8933 274.096 65.1263 260.687C58.5827 247.729 47.3267 239.683 36.428 231.946C25.373 224.066 13.916 215.902 7.484 202.564C6.144 199.811 5.005 196.939 4 194.02V195.705C4.89333 198.126 5.85367 200.523 6.97033 202.825C13.4917 216.329 24.9933 224.517 36.1153 232.444C46.947 240.158 58.1583 248.132 64.6127 260.972C71.3127 274.262 72.2953 290.33 67.6277 310.147C67.4713 310.859 67.2927 311.547 67.114 312.259C65.5953 318.525 63.8757 325.645 65.6177 332.148C67.5607 339.387 73.9927 343.374 78.6603 345.747C87.3257 350.162 96.46 353.366 105.572 355.953H107.783C98.0233 353.294 88.1967 349.972 78.9283 345.249Z" fill="#C94293"/>
<path d="M631.008 353.105C632.907 354.173 634.85 355.146 636.793 356H638.311C635.922 355.003 633.554 353.864 631.254 352.559C607.045 338.936 584.175 308.32 587.816 280.718C589.848 265.386 598.692 250.529 606.486 237.452C607.558 235.648 608.608 233.868 609.635 232.136C610.774 230.19 611.913 228.244 613.03 226.321C620.534 213.434 628.306 200.096 637.172 187.921C644.118 178.38 652.27 169.765 660.131 161.434C663.883 157.447 667.791 153.341 671.521 149.14C672.28 148.286 673.129 147.36 673.955 146.364V145.462C672.973 146.648 671.968 147.764 671.074 148.784C667.367 152.938 663.481 157.044 659.707 161.031C651.823 169.385 643.649 178 636.681 187.565C627.815 199.74 620.043 213.102 612.516 226.013C611.377 227.959 610.261 229.905 609.122 231.827C608.094 233.584 607.045 235.34 605.973 237.144C598.134 250.292 589.267 265.196 587.213 280.67C584.957 297.664 592.439 313.138 599.116 323.129C607.402 335.4 619.015 346.341 631.008 353.105Z" fill="#C94293"/>
<path d="M494.641 356C495.802 354.41 496.964 352.844 498.103 351.325C499.286 349.782 500.47 348.239 501.676 346.697C508.689 337.678 515.969 328.351 519.61 317.101C524.612 301.698 518.761 288.645 512.575 274.832L511.704 272.862C505.182 258.219 503.887 245.047 507.751 232.61C511.771 219.628 520.168 208.569 527.717 199.218C529.503 197.01 531.357 194.78 533.144 192.62C539.553 184.906 546.164 176.956 551.323 167.937C552.283 166.252 553.266 164.496 554.204 162.787C560.011 152.297 565.996 141.451 576.381 136.372C580.356 134.426 584.689 133.286 588.865 132.195C591.769 131.435 594.784 130.628 597.642 129.584C602.6 127.757 607.469 125.431 612.159 123.176C615.174 121.728 618.301 120.233 621.405 118.88C637.619 111.879 652.672 111.143 666.161 116.697C668.707 117.741 671.521 119.141 673.978 120.874V120.162C671.878 118.714 669.332 117.361 666.362 116.127C652.739 110.502 637.552 111.262 621.204 118.311C618.077 119.664 614.951 121.159 611.936 122.606C607.268 124.861 602.422 127.187 597.486 128.991C594.627 130.035 591.635 130.818 588.754 131.601C584.533 132.717 580.178 133.856 576.158 135.826C565.616 141 559.564 151.917 553.735 162.502C552.797 164.211 551.814 165.967 550.854 167.652C545.717 176.6 539.107 184.55 532.719 192.24C530.933 194.4 529.079 196.631 527.292 198.838C519.699 208.213 511.279 219.344 507.215 232.421C503.306 245.023 504.624 258.337 511.212 273.1L512.083 275.069C518.203 288.764 524.009 301.698 519.074 316.864C515.456 327.995 508.242 337.274 501.252 346.269C500.046 347.812 498.84 349.355 497.656 350.921C496.428 352.535 495.155 354.22 493.904 355.953H494.641V356Z" fill="#C94293"/>
<path d="M46.9247 266.81C41.3413 254.255 30.733 246.233 20.4597 238.473C14.787 234.177 8.98033 229.786 4 224.612V225.443C8.91333 230.474 14.586 234.77 20.147 238.971C30.3533 246.684 40.917 254.659 46.4333 267.071C57.8457 292.751 33.078 316.389 16.6853 332.029L14.6977 333.928C10.9903 337.488 7.32767 341.238 4 345.391V346.341C7.39467 341.997 11.2137 338.058 15.055 334.379L17.0427 332.48C33.5693 316.698 58.5157 292.893 46.9247 266.81Z" fill="#C94293"/>
<path d="M511.704 346.934C509.47 349.9 507.237 352.915 505.071 356H507.885C509.716 353.437 511.592 350.921 513.446 348.429C515.947 345.083 518.538 341.641 520.905 338.152C529.459 325.669 540.112 310.123 535.489 293.391C533.568 286.414 529.883 280.243 526.332 274.262C521.62 266.335 517.175 258.859 516.282 249.532C513.691 222.476 535.087 201.282 552.283 184.242L553.668 182.865C564.232 172.375 574.036 163.333 587.079 158.539C592.818 156.426 598.96 155.382 604.878 154.362C606.062 154.148 607.268 153.958 608.452 153.744C608.876 153.673 609.367 153.578 609.903 153.483C614.169 152.653 622.12 151.134 625.76 153.839C626.765 154.599 627.368 155.643 627.591 157.02C628.261 161.197 626.609 166.442 625.135 171.046C624.777 172.138 624.442 173.182 624.152 174.179C622.231 180.777 619.931 187.422 617.095 194.495C612.382 206.29 606.464 218.608 598.491 233.299C596.57 236.835 594.359 240.537 592.014 244.43C580.937 262.918 568.386 283.874 576.738 304.926C581.607 317.196 590.228 328.849 597.196 337.63C602.734 344.608 608.496 350.731 614.415 355.929H618.01C611.444 350.446 605.035 343.801 598.915 336.088C592.059 327.425 583.572 315.962 578.815 304C570.909 284.112 583.126 263.725 593.913 245.735C596.258 241.795 598.491 238.093 600.434 234.509C608.452 219.723 614.415 207.311 619.172 195.444C622.03 188.276 624.375 181.56 626.318 174.891C626.586 173.918 626.921 172.897 627.279 171.806C628.842 166.916 630.606 161.387 629.825 156.592C629.49 154.575 628.574 152.985 627.055 151.87C622.656 148.571 614.437 150.161 609.524 151.11C609.01 151.205 608.519 151.3 608.094 151.371C606.911 151.585 605.727 151.798 604.543 151.988C598.513 153.032 592.282 154.1 586.364 156.26C572.897 161.197 562.914 170.429 552.149 181.085L550.765 182.462C533.211 199.858 511.346 221.527 514.049 249.77C514.987 259.643 519.788 267.736 524.434 275.52C527.895 281.359 531.491 287.387 533.322 294.032C537.633 309.601 527.359 324.624 519.096 336.681C516.751 340.17 514.183 343.611 511.704 346.934Z" fill="#C94293"/>
<path d="M674 350.613C670.829 350.945 667.568 351.064 664.24 350.992C650.974 350.684 638.311 346.412 627.591 338.651C617.564 331.389 609.122 321.373 603.159 309.72C599.563 302.671 597.709 296.999 597.106 291.303C596.414 284.658 596.816 276.992 598.089 271.77C600.568 261.85 606.486 252.001 611.712 243.314C612.65 241.771 613.566 240.229 614.459 238.71C622.276 225.467 630.718 213.244 639.54 202.398C648.607 191.291 658.21 181.323 668.082 172.779C670.025 171.094 671.99 169.504 673.978 167.961V167.225C671.878 168.839 669.779 170.524 667.724 172.304C657.808 180.848 648.183 190.84 639.115 201.994C630.271 212.864 621.807 225.111 613.968 238.378C613.075 239.873 612.159 241.416 611.221 242.982C605.973 251.692 600.032 261.589 597.531 271.604C596.213 276.873 595.811 284.634 596.526 291.35C597.129 297.141 599.005 302.885 602.645 310.005C608.653 321.753 617.139 331.84 627.256 339.149C638.066 346.981 650.84 351.277 664.218 351.586C664.866 351.609 665.513 351.609 666.139 351.609C668.796 351.609 671.409 351.467 673.978 351.206V350.613H674Z" fill="#C94293"/>
<path d="M674 340.455C673.062 340.55 672.124 340.645 671.186 340.716C659.171 341.499 647.446 338.746 637.329 332.789C620.713 322.987 604.767 302.932 606.62 280.243C607.648 267.712 613.276 256.581 618.636 247.373C625.38 235.767 633.264 224.731 642.041 214.549C650.55 204.653 659.908 195.373 669.824 186.971C671.097 185.903 672.504 184.717 674.022 183.459V182.699C672.37 184.052 670.829 185.357 669.466 186.497C659.528 194.922 650.148 204.202 641.617 214.146C632.817 224.351 624.934 235.435 618.144 247.064C612.74 256.344 607.089 267.522 606.062 280.196C605.213 290.543 608.094 301.295 614.392 311.286C619.998 320.186 628.06 328.018 637.061 333.335C646.15 338.698 656.468 341.475 667.166 341.475C668.506 341.475 669.868 341.428 671.231 341.333C672.169 341.285 673.107 341.19 674.022 341.095V340.455H674Z" fill="#C94293"/>
<path d="M674 331.863C673.844 331.887 673.71 331.911 673.553 331.934C663.079 333.263 651.912 330.914 642.108 325.289C623.951 314.87 613.41 295.931 615.263 277.039C617.363 255.703 632.147 237.547 645.838 222.215C653.118 214.051 661.449 205.982 671.32 197.485C672.169 196.749 673.084 195.99 674 195.23V194.471C672.95 195.325 671.945 196.203 670.963 197.034C661.091 205.531 652.739 213.624 645.436 221.812C631.678 237.215 616.827 255.466 614.705 276.992C612.829 296.121 623.482 315.274 641.84 325.835C649.925 330.487 658.947 332.931 667.747 332.931C669.712 332.931 671.677 332.813 673.62 332.551C673.732 332.528 673.866 332.504 673.978 332.504V331.863H674Z" fill="#C94293"/>
<path d="M552.976 279.341C548.889 279.341 545.137 276.968 542.01 274.618C532.853 267.807 526.086 256.059 524.769 244.667C523.853 226.392 535.377 208.379 558.983 191.101C566.755 185.405 575.13 180.16 583.751 180.16C585.716 180.16 587.659 180.444 589.513 181.014C599.228 183.981 601.595 194.518 600.657 202.659C597.843 227.27 582.523 249.793 567.894 268.59C564.634 272.767 560.993 277.466 555.857 278.962C554.896 279.199 553.936 279.341 552.976 279.341ZM583.751 180.753C575.287 180.753 566.979 185.951 559.296 191.599C535.868 208.758 524.434 226.582 525.327 244.619C526.622 255.822 533.3 267.427 542.323 274.144C545.382 276.422 549.045 278.748 552.976 278.748C553.891 278.748 554.807 278.606 555.678 278.368C560.636 276.92 564.232 272.316 567.403 268.234C582.009 249.461 597.285 227.033 600.077 202.588C600.992 194.684 598.714 184.455 589.334 181.584C587.548 181.014 585.672 180.753 583.751 180.753Z" fill="#C94293"/>
<path d="M674 322.061C666.25 323.177 658.21 322.061 650.84 318.739C634.716 311.453 624.174 295.504 624.621 279.033C625.135 259.999 638.244 243.362 651.019 229.596C657.585 222.5 665.111 215.356 674 207.738V204.653C673.665 204.937 673.33 205.222 672.995 205.507C663.883 213.315 656.156 220.625 649.433 227.911C636.368 242.009 622.924 259.097 622.388 278.962C621.919 296.429 633.018 313.304 649.969 320.97C655.776 323.58 661.985 324.909 668.149 324.909C670.114 324.909 672.057 324.767 674 324.506V322.061Z" fill="#C94293"/>
<path d="M674 313.28C668.037 314.324 661.672 313.992 655.285 311.31C642.845 306.065 631.276 292.181 633.197 275.734C635.229 258.48 646.664 244.667 658.724 232.302C663.168 227.745 668.283 222.761 674 217.943V217.184C668.126 222.097 662.878 227.199 658.344 231.851C646.217 244.287 634.716 258.195 632.661 275.639C630.696 292.371 642.443 306.54 655.084 311.856C659.372 313.66 663.66 314.419 667.836 314.419C669.935 314.419 671.99 314.229 674.022 313.873V313.28H674Z" fill="#C94293"/>
<path d="M552.752 253.211C546.745 253.211 542.367 249.342 540.402 242.341C538.303 229.264 547.102 217.326 556.75 211.274C558.894 209.921 564.5 206.765 569.77 206.765C574.282 206.765 577.364 209.02 578.905 213.505C581.83 221.907 578.011 232.61 567.582 245.284C563.562 250.173 557.889 253.211 552.752 253.211ZM569.77 207.382C564.656 207.382 559.162 210.467 557.04 211.796C547.549 217.73 538.906 229.454 540.96 242.199C542.836 248.892 547.013 252.618 552.752 252.618C557.733 252.618 563.249 249.651 567.18 244.904C577.453 232.397 581.227 221.907 578.391 213.719C576.917 209.494 574.014 207.382 569.77 207.382Z" fill="#C94293"/>
<path d="M674 301.2C670.918 301.769 667.992 301.746 665.156 301.176C653.342 298.779 644.855 287.862 645.369 275.758C645.994 261.803 655.731 250.316 665.201 240.917C667.97 238.164 670.918 235.316 673.978 232.539V231.756C670.762 234.652 667.702 237.618 664.821 240.49C655.285 249.96 645.436 261.565 644.81 275.734C644.252 288.147 652.962 299.325 665.044 301.769C666.518 302.054 668.015 302.22 669.533 302.22C670.985 302.22 672.459 302.078 673.978 301.817V301.2H674Z" fill="#C94293"/>
<path d="M201.27 326.95C199.439 326.95 197.585 326.808 195.799 326.547C167.301 322.346 153.566 290.52 147.894 271.937C145.124 258.504 152.561 246.162 169.981 235.221C185.123 225.704 200.444 220.768 215.497 220.554C234.078 220.293 253.039 225.585 265.568 229.549C266.461 229.834 267.422 230.119 268.449 230.451C280.442 234.106 298.532 239.636 298.845 254.54C299.09 266.146 287.879 275.71 279.705 282.664C279.057 283.21 278.432 283.756 277.829 284.278C268.985 291.896 259.114 298.352 249.555 304.617C245.848 307.038 242.006 309.554 238.299 312.093C226.998 319.807 214.693 326.95 201.27 326.95ZM216.926 221.147C216.457 221.147 215.988 221.147 215.497 221.147C200.533 221.361 185.302 226.274 170.249 235.743C153.075 246.542 145.727 258.67 148.43 271.77C154.035 290.188 167.681 321.777 195.866 325.93C197.652 326.191 199.461 326.333 201.27 326.333C214.536 326.333 226.753 319.237 237.986 311.571C241.694 309.032 245.535 306.516 249.265 304.095C258.801 297.853 268.672 291.398 277.472 283.803C278.075 283.281 278.7 282.759 279.348 282.189C287.432 275.283 298.51 265.861 298.264 254.54C297.951 240.087 280.107 234.628 268.27 231.02C267.243 230.712 266.283 230.427 265.389 230.142C253.24 226.274 234.971 221.147 216.926 221.147Z" fill="#C94293"/>
<path d="M30.8447 277.989C30.2863 267.095 23.765 259.121 18.137 253.377C13.8937 249.058 9.159 245.023 4 241.321V242.056C9.00267 245.664 13.6033 249.603 17.7573 253.804C23.3183 259.477 29.7503 267.332 30.3087 278.012C30.8 287.719 26.5343 295.931 22.8717 301.129C17.5787 308.628 10.7 314.704 4 320.519V321.302C10.834 315.345 17.8913 309.198 23.296 301.508C27.0257 296.24 31.3583 287.885 30.8447 277.989Z" fill="#C94293"/>
<path d="M674 285.061C671.03 285.132 668.171 284.23 665.915 282.427C663.213 280.291 661.694 277.039 661.627 273.313C661.449 263.986 668.283 256.557 674 250.956V250.149C668.126 255.893 660.868 263.535 661.069 273.337C661.136 277.253 662.744 280.67 665.58 282.925C667.858 284.729 670.717 285.678 673.687 285.678C673.799 285.678 673.888 285.678 674 285.678V285.061Z" fill="#C94293"/>
<path d="M4 260.284C8.288 264.579 11.0797 269.658 12.04 275.046C13.6703 284.207 9.025 292.585 4 298.66V299.562C9.27067 293.344 14.2957 284.586 12.5983 274.927C11.5933 269.231 8.60067 263.915 4 259.453V260.284Z" fill="#C94293"/>
<path d="M216.077 290.093C208.774 290.093 200.221 286.39 198.099 275.947V275.9L198.121 275.378C198.434 269.136 198.724 263.226 203.638 258.646C208.127 254.445 214.067 252.214 220.767 252.214C221.013 252.214 221.281 252.214 221.527 252.238C226.462 252.357 237.071 254.208 241.939 260.283C243.905 262.728 244.709 265.6 244.329 268.78C243.123 278.985 230.482 287.031 222.308 289.262C220.254 289.808 218.154 290.093 216.077 290.093ZM198.635 275.853C200.712 285.915 208.998 289.475 216.055 289.475C218.087 289.475 220.142 289.191 222.152 288.645C230.17 286.461 242.587 278.606 243.748 268.661C244.106 265.647 243.346 262.942 241.493 260.639C236.736 254.73 226.328 252.926 221.482 252.807C221.236 252.807 220.991 252.807 220.745 252.807C214.179 252.807 208.372 254.967 203.995 259.073C199.26 263.487 198.992 268.994 198.657 275.402L198.635 275.853Z" fill="#C94293"/>
<path d="M519.163 356C524.367 348.073 530.129 340.573 535.757 333.287L536.404 332.457C536.873 331.863 537.32 331.246 537.811 330.629C542.881 323.984 549.179 315.701 557.398 315.202C566.867 314.633 575.108 324.672 580.021 330.653C582.59 333.762 585.136 336.942 587.615 340.027C591.858 345.296 596.235 350.731 600.724 355.976H601.484C596.883 350.589 592.394 345.035 588.039 339.624C585.56 336.539 582.992 333.358 580.446 330.249C575.465 324.174 567.09 313.992 557.375 314.585C548.911 315.084 542.524 323.485 537.387 330.226C536.918 330.866 536.449 331.46 535.98 332.053L535.332 332.884C529.615 340.289 523.764 347.883 518.493 355.976H519.163V356Z" fill="#C94293"/>
<path d="M246.406 356C246.406 356 246.406 355.976 246.406 356C263.156 335.993 281.09 323.794 299.738 319.759C314.031 316.674 325.689 316.46 335.404 319.142C340.407 320.519 343.623 322.939 344.963 326.31C345.544 327.781 348.335 335.233 345.544 337.607L345.454 337.678L345.432 337.773C344.248 344.062 342.149 350.114 339.715 355.976H340.34C342.73 350.185 344.762 344.204 345.968 337.986C348.871 335.352 346.325 328.208 345.477 326.049C344.07 322.512 340.72 319.973 335.538 318.549C325.756 315.843 314.009 316.033 299.626 319.142C280.866 323.2 262.821 335.447 246.004 355.549C245.892 355.691 245.781 355.834 245.669 355.976H246.406V356Z" fill="#C94293"/>
<path d="M363.098 356C376.654 341.475 394.387 330.415 413.303 324.719C422.504 321.966 435.011 319.854 442.292 325.479C446.044 328.398 448.098 333.145 448.366 339.577C448.612 345.083 448.165 350.565 447.384 355.976H447.942C448.701 350.541 449.148 345.059 448.925 339.529C448.657 332.884 446.513 327.995 442.604 324.981C435.123 319.19 422.437 321.326 413.124 324.126C393.918 329.893 375.939 341.167 362.271 355.976H363.098V356Z" fill="#C94293"/>
<path d="M255.875 356C267.087 341.784 281.603 332.077 296.946 328.588C305.12 326.737 316.555 325.788 324.528 331.84C331.965 337.464 331.943 347.385 330.625 354.695C330.536 355.122 330.446 355.573 330.357 356H330.938C331.027 355.597 331.094 355.193 331.183 354.79C332.546 347.314 332.546 337.156 324.863 331.341C316.711 325.17 305.12 326.12 296.835 327.995C281.224 331.555 266.506 341.452 255.161 356H255.875Z" fill="#C94293"/>
<path d="M266.126 356C275.149 345.391 287.12 338.414 298.443 337.393C305.143 336.8 310.994 339.007 314.902 343.635C317.716 346.958 319.257 351.23 319.436 355.976H319.994C319.816 351.064 318.23 346.673 315.327 343.232C311.307 338.461 305.299 336.159 298.398 336.776C286.785 337.82 274.524 345.035 265.367 355.976H266.126V356Z" fill="#C94293"/>
<path d="M532.943 356C539.352 347.337 547.75 340.668 554.874 338.936C566.465 336.112 576.604 346.198 584.108 356H584.845C577.207 345.961 566.8 335.423 554.762 338.366C547.415 340.146 538.772 347.076 532.25 356H532.943Z" fill="#C94293"/>
<path d="M377.949 356C385.342 351.23 393.158 347.812 400.953 346.222C415.492 343.279 424.805 346.578 428.601 356H429.204C425.341 346.103 415.804 342.638 400.841 345.629C392.779 347.242 384.56 350.826 376.743 356H377.949Z" fill="#C94293"/>
<path d="M280.018 356C280.71 355.502 281.402 355.027 282.117 354.6C286.584 351.87 291.519 350.28 295.629 350.28C298.979 350.28 303.155 351.372 305.589 356H306.237C303.713 350.85 299.224 349.687 295.629 349.687C291.408 349.687 286.383 351.277 281.827 354.078C280.866 354.671 279.928 355.312 279.035 356H280.018Z" fill="#C94293"/>
</g>
<defs>
<filter id="filter0_d_11_92" x="0" y="0" width="678" height="364" filterUnits="userSpaceOnUse" color-interpolation-filters="sRGB">
<feFlood flood-opacity="0" result="BackgroundImageFix"/>
<feColorMatrix in="SourceAlpha" type="matrix" values="0 0 0 0 0 0 0 0 0 0 0 0 0 0 0 0 0 0 127 0" result="hardAlpha"/>
<feOffset dy="4"/>
<feGaussianBlur stdDeviation="2"/>
<feComposite in2="hardAlpha" operator="out"/>
<feColorMatrix type="matrix" values="0 0 0 0 0 0 0 0 0 0 0 0 0 0 0 0 0 0 0.25 0"/>
<feBlend mode="normal" in2="BackgroundImageFix" result="effect1_dropShadow_11_92"/>
<feBlend mode="normal" in="SourceGraphic" in2="effect1_dropShadow_11_92" result="shape"/>
</filter>
<clipPath id="clip0_11_92">
<rect width="670" height="356" fill="white" transform="translate(4)"/>
</clipPath>
</defs>
</svg>
